name rise30.8019peak61.5557fall86.2505.mot
datacolumns 19
datarows 14
range 14.87161400000000 14.89329200000000
endheader
time	ground_force1_vx	ground_force1_vy	ground_force1_vz	ground_force1_px	ground_force1_py	ground_force1_pz	ground_force2_vx	ground_force2_vy	ground_force2_vz	ground_force2_px	ground_force2_py	ground_force2_pz	ground_torque1_x	ground_torque1_y	ground_torque1_z	ground_torque2_x	ground_torque2_y	ground_torque2_z	
14.87161400000000	-5.45762200000000	41.22372100000000	-9.77279100000000	0.22278400000000	0.00000000000000	0.08382100000000	-66.37365900000000	754.20161399999995	-48.57290100000000	-0.01616300000000	0.00000000000000	-0.08224800000000	0.00000000000000	-4.80135200000000	0.00000000000000	0.00000000000000	-8.02269200000000	0.00000000000000	
14.87328700000000	-5.96078400000000	48.11105100000000	-11.01733300000000	0.22748500000000	0.00000000000000	0.08465000000000	-67.31972100000000	751.97595500000000	-48.20635500000000	-0.01695600000000	0.00000000000000	-0.08210400000000	0.00000000000000	-5.48084600000000	0.00000000000000	0.00000000000000	-8.12431900000000	0.00000000000000	
14.87494400000000	-6.35239100000000	55.03035400000000	-12.15885900000000	0.23181400000000	0.00000000000000	0.08541100000000	-68.28368000000000	749.64418100000000	-47.82619100000000	-0.01774800000000	0.00000000000000	-0.08195800000000	0.00000000000000	-6.12256000000000	0.00000000000000	0.00000000000000	-8.23228900000000	0.00000000000000	
14.87661100000000	-6.61685100000000	61.88798400000000	-13.17181600000000	0.23582000000000	0.00000000000000	0.08611400000000	-69.26418099999999	747.20224700000006	-47.43213600000000	-0.01853700000000	0.00000000000000	-0.08180900000000	0.00000000000000	-6.71243900000000	0.00000000000000	0.00000000000000	-8.34645600000000	0.00000000000000	
14.87828600000000	-6.74477100000000	68.61443700000000	-14.03915900000000	0.23954100000000	0.00000000000000	0.08676700000000	-70.25976300000001	744.64604699999995	-47.02391600000000	-0.01932400000000	0.00000000000000	-0.08165800000000	0.00000000000000	-7.24050100000000	0.00000000000000	0.00000000000000	-8.46665300000000	0.00000000000000	
14.87994900000000	-6.73286500000000	75.16632400000000	-14.75248800000000	0.24301100000000	0.00000000000000	0.08737700000000	-71.26885299999999	741.97143200000005	-46.60126300000000	-0.02010800000000	0.00000000000000	-0.08150300000000	0.00000000000000	-7.70105400000000	0.00000000000000	0.00000000000000	-8.59269300000000	0.00000000000000	
14.88161100000000	-6.58338400000000	81.52586400000000	-15.31145400000000	0.24625500000000	0.00000000000000	0.08794900000000	-72.28977700000000	739.17421700000000	-46.16391100000000	-0.02088800000000	0.00000000000000	-0.08134600000000	0.00000000000000	-8.09251400000000	0.00000000000000	0.00000000000000	-8.72436300000000	0.00000000000000	
14.88328600000000	-6.30319600000000	87.69836700000000	-15.72260000000000	0.24929600000000	0.00000000000000	0.08848800000000	-73.32075200000000	736.25020500000005	-45.71160600000000	-0.02166500000000	0.00000000000000	-0.08118500000000	0.00000000000000	-8.41692300000000	0.00000000000000	0.00000000000000	-8.86143400000000	0.00000000000000	
14.88494900000000	-5.90264300000000	93.70825000000001	-15.99784900000000	0.25215200000000	0.00000000000000	0.08899700000000	-74.35989400000000	733.19519200000002	-45.24410300000000	-0.02243700000000	0.00000000000000	-0.08102200000000	0.00000000000000	-8.67924100000000	0.00000000000000	0.00000000000000	-9.00365100000000	0.00000000000000	
14.88661600000000	-5.39432500000000	99.59417200000000	-16.15280000000000	0.25483900000000	0.00000000000000	0.08948000000000	-75.40521800000000	730.00499400000001	-44.76117100000000	-0.02320500000000	0.00000000000000	-0.08085600000000	0.00000000000000	-8.88651900000000	0.00000000000000	0.00000000000000	-9.15074000000000	0.00000000000000	
14.88828900000000	-4.79190200000000	105.40385499999999	-16.20502900000000	0.25737100000000	0.00000000000000	0.08994000000000	-76.45464200000001	726.67545099999995	-44.26259700000000	-0.02396800000000	0.00000000000000	-0.08068800000000	0.00000000000000	-9.04704200000000	0.00000000000000	0.00000000000000	-9.30240600000000	0.00000000000000	
14.88994600000000	-4.10902900000000	111.18905800000000	-16.17252100000000	0.25975800000000	0.00000000000000	0.09037900000000	-77.50599000000000	723.20245599999998	-43.74818600000000	-0.02472700000000	0.00000000000000	-0.08051700000000	0.00000000000000	-9.16951600000000	0.00000000000000	0.00000000000000	-9.45833100000000	0.00000000000000	
14.89161700000000	-3.35847100000000	117.00107300000001	-16.07233400000000	0.26201200000000	0.00000000000000	0.09080000000000	-78.55699700000000	719.58196199999998	-43.21776600000000	-0.02548000000000	0.00000000000000	-0.08034300000000	0.00000000000000	-9.26235500000000	0.00000000000000	0.00000000000000	-9.61817800000000	0.00000000000000	
14.89329200000000	-2.55144300000000	122.88702800000000	-15.91956900000000	0.26414000000000	0.00000000000000	0.09120300000000	-79.60531100000000	715.81000800000004	-42.67118900000000	-0.02622800000000	0.00000000000000	-0.08016600000000	0.00000000000000	-9.33311400000000	0.00000000000000	0.00000000000000	-9.78159000000000	0.00000000000000	
